<?xml version="1.0" standalone="no"?>
<!DOCTYPE svg PUBLIC "-//W3C//DTD SVG 20010904//EN"
 "http://www.w3.org/TR/2001/REC-SVG-20010904/DTD/svg10.dtd">
<svg version="1.0" xmlns="http://www.w3.org/2000/svg"
 width="1600.000000pt" height="252.000000pt" viewBox="0 0 1600.000000 252.000000"
 preserveAspectRatio="xMidYMid meet">

<g transform="translate(0.000000,252.000000) scale(0.100000,-0.100000)"
fill="#000000" stroke="none">
<path d="M1018 2393 c-31 -71 -114 -258 -183 -418 -70 -159 -158 -360 -195
-445 -37 -85 -123 -281 -190 -435 -67 -154 -153 -350 -190 -435 -138 -314
-240 -550 -240 -555 0 -3 81 -4 181 -3 l181 3 23 55 c12 30 89 208 170 395
167 386 303 702 410 950 40 94 106 244 145 335 40 91 82 190 95 220 12 30 37
88 55 128 l33 72 162 0 162 0 43 -102 c24 -57 70 -166 102 -243 32 -77 67
-160 78 -185 18 -41 63 -149 212 -505 28 -66 63 -149 78 -185 38 -90 152 -361
210 -500 27 -63 75 -178 108 -255 32 -77 62 -150 66 -162 l7 -23 360 0 359 0
0 1035 0 1035 -530 0 -530 0 0 -140 0 -140 353 -2 352 -3 3 -857 c1 -472 -2
-858 -6 -858 -5 0 -26 39 -46 88 -50 115 -260 597 -346 792 -178 405 -460
1050 -597 1365 -19 44 -39 86 -45 93 -8 9 -101 12 -402 12 l-392 0 -56 -127z"/>
<path d="M2200 2390 l0 -130 1160 0 1160 0 0 -532 c0 -581 5 -644 55 -773 35
-88 119 -216 182 -276 104 -101 272 -188 402 -210 74 -12 221 -11 298 1 240
39 477 235 576 474 54 132 57 178 57 909 l0 668 -57 -3 -58 -3 -49 -85 c-27
-47 -127 -224 -223 -395 -96 -170 -178 -314 -183 -318 -6 -7 -41 4 -58 18 -2
1 11 56 28 121 17 66 49 187 70 269 21 83 53 203 69 268 17 65 31 120 31 122
0 3 -11 5 -25 5 -30 0 -37 -13 -63 -115 -21 -83 -59 -229 -113 -432 -17 -65
-37 -140 -43 -168 -6 -28 -17 -50 -24 -49 -6 1 -21 2 -32 3 -19 1 -20 10 -22
379 l-3 377 -27 3 -28 3 0 -376 0 -375 -27 -11 c-14 -5 -30 -6 -34 -2 -4 4
-23 69 -43 143 -19 74 -49 189 -66 255 -17 66 -42 163 -56 216 -34 138 -39
149 -69 149 -14 0 -25 -5 -25 -10 0 -6 16 -71 35 -145 19 -74 51 -197 71 -272
19 -76 46 -181 60 -233 13 -52 27 -102 29 -110 6 -20 -50 -44 -63 -26 -9 11
-139 241 -344 606 l-103 185 -1223 3 -1222 2 0 -130z m3800 -188 l0 -186 -188
-189 -188 -188 -26 20 -26 21 92 163 c233 406 321 555 328 551 5 -3 8 -89 8
-192z m-1276 37 c40 -68 127 -219 194 -335 67 -116 122 -216 122 -221 0 -5
-11 -16 -25 -23 -25 -14 -29 -10 -205 165 l-180 180 0 183 c0 134 3 183 12
180 6 -2 43 -60 82 -129z m1274 -429 l-3 -94 -143 -84 c-138 -82 -143 -84
-162 -67 -11 10 -20 23 -20 29 0 18 314 326 323 317 4 -4 6 -50 5 -101z
m-1194 -59 l149 -149 -19 -26 c-11 -14 -21 -25 -24 -26 -3 0 -66 36 -140 79
l-135 78 -3 97 c-2 73 0 96 10 96 7 0 80 -67 162 -149z m601 -65 c81 -20 142
-56 204 -121 70 -74 102 -145 108 -246 3 -45 2 -79 -3 -79 -5 0 -61 52 -124
115 l-114 115 -43 -42 -43 -42 -85 84 -85 85 -158 -158 c-86 -86 -161 -157
-165 -157 -12 0 -8 91 7 146 59 223 276 353 501 300z m595 -115 l0 -69 -47
-15 c-27 -8 -81 -23 -121 -33 -64 -16 -74 -16 -83 -4 -21 33 -3 53 111 120 63
37 121 68 128 69 8 1 12 -19 12 -68z m-1235 -7 c63 -37 115 -68 115 -70 0 -12
-25 -54 -33 -54 -13 0 -199 50 -209 56 -12 8 -10 134 2 134 6 0 62 -30 125
-66z m542 -176 l83 -82 43 42 43 42 74 -76 c79 -81 76 -87 -16 -29 -63 41 -53
43 -135 -33 l-36 -33 -68 85 c-38 47 -70 86 -71 86 -2 0 -49 -29 -104 -65 -55
-36 -104 -65 -108 -65 -3 0 40 47 98 105 58 58 107 105 110 105 2 0 42 -37 87
-82z m691 -19 l-3 -54 -105 0 -105 0 -3 32 c-3 30 -1 33 40 43 24 6 70 19 103
29 33 10 64 15 68 11 5 -4 7 -31 5 -61z m-1244 32 c44 -11 81 -22 83 -24 2 -2
0 -18 -3 -36 l-7 -32 -96 3 -96 3 -3 44 c-4 55 3 75 26 68 9 -2 53 -14 96 -26z
m531 -181 l67 -90 61 55 c33 30 65 55 71 55 18 -1 201 -117 199 -126 -1 -5
-37 -18 -80 -30 -142 -37 -229 -89 -274 -161 l-23 -36 -15 24 c-33 53 -104
108 -176 138 -40 17 -80 31 -87 31 -31 0 -120 32 -112 40 13 13 288 190 295
190 4 0 37 -40 74 -90z m-449 6 c8 -33 2 -57 -17 -69 -19 -12 -194 66 -184 83
3 6 47 10 100 10 92 0 95 -1 101 -24z m1155 10 c-17 -20 -182 -88 -198 -82 -8
3 -13 22 -13 51 l0 45 111 0 c95 0 110 -2 100 -14z m-27 -186 c-14 -47 -40
-109 -57 -140 -46 -83 -187 -218 -274 -263 -74 -38 -203 -77 -260 -77 l-33 0
0 78 c0 217 56 301 235 353 171 50 265 83 330 113 39 18 74 30 78 26 4 -4 -4
-44 -19 -90z m-1009 -25 c190 -54 238 -83 282 -168 24 -46 28 -66 31 -169 l4
-118 -33 0 c-59 0 -172 36 -257 79 -143 75 -270 233 -316 393 -29 101 -29 101
72 58 48 -21 146 -54 217 -75z"/>
<path d="M5476 925 c-3 -9 -6 -32 -6 -51 0 -31 3 -34 28 -34 16 0 36 -6 47
-13 28 -21 9 -39 -39 -35 -31 2 -41 -1 -41 -12 0 -23 97 -26 119 -5 36 37 4
95 -52 95 -17 0 -23 5 -20 18 2 12 14 18 41 20 56 5 41 26 -20 30 -39 2 -52
-1 -57 -13z"/>
<path d="M5620 905 c0 -28 4 -35 19 -35 10 0 21 9 24 20 6 23 35 27 43 6 3 -8
-6 -37 -20 -65 -32 -62 -32 -71 -3 -71 18 0 28 14 55 78 17 42 32 83 32 90 0
8 -22 12 -75 12 l-75 0 0 -35z"/>
<path d="M4860 925 c0 -8 7 -15 15 -15 12 0 15 -15 15 -75 0 -73 1 -75 25 -75
25 0 25 1 25 90 l0 90 -40 0 c-29 0 -40 -4 -40 -15z"/>
<path d="M4986 918 c-34 -48 -9 -88 56 -88 40 0 41 0 24 -19 -10 -11 -32 -21
-49 -23 -53 -5 -45 -28 11 -28 60 0 82 21 89 84 5 38 2 48 -20 70 -34 34 -89
36 -111 4z m82 -35 c3 -19 -1 -23 -22 -23 -28 0 -41 14 -32 36 9 24 50 13 54
-13z"/>
<path d="M6188 1823 l-4 -698 -26 -96 c-58 -213 -188 -400 -361 -518 -70 -48
-201 -106 -287 -127 -114 -29 -319 -26 -425 5 -326 95 -548 323 -630 646 l-25
98 0 518 0 519 -535 0 -535 0 0 -1035 0 -1035 180 0 180 0 0 895 0 895 174 0
174 0 4 -397 c4 -363 7 -407 26 -497 112 -507 501 -885 997 -971 116 -20 316
-20 425 0 450 83 811 396 954 825 63 189 66 238 66 994 l0 676 -174 0 -175 0
-3 -697z"/>
<path d="M7411 2478 c-10 -24 -75 -173 -145 -331 -69 -159 -126 -290 -126
-293 0 -2 49 -4 109 -4 l110 0 22 60 22 61 130 -3 131 -3 22 -55 22 -55 111
-3 c61 -1 111 -1 111 2 0 4 -60 142 -207 481 l-79 180 -107 3 -107 3 -19 -43z
m160 -270 c16 -39 26 -75 23 -80 -7 -11 -124 -10 -124 2 0 11 46 135 56 151 9
15 15 6 45 -73z"/>
<path d="M7980 2185 l0 -335 260 0 260 0 0 85 0 85 -150 0 -150 0 -2 248 -3
247 -107 3 -108 3 0 -336z"/>
<path d="M8577 2513 c-4 -3 -7 -154 -7 -335 l0 -328 100 0 99 0 3 146 3 146
70 -113 70 -114 50 0 49 0 70 118 71 117 3 -150 3 -151 100 3 101 3 -2 324 c0
178 -3 328 -6 333 -3 4 -40 8 -83 8 -62 0 -81 -4 -93 -17 -8 -10 -56 -89 -108
-176 -51 -87 -96 -159 -99 -162 -4 -2 -53 72 -109 164 -56 92 -108 173 -114
179 -13 13 -160 17 -171 5z"/>
<path d="M9676 2464 c-14 -31 -26 -58 -26 -59 0 -2 -52 -122 -116 -267 -64
-145 -118 -269 -121 -276 -4 -10 19 -12 107 -10 l112 3 22 55 22 55 128 3 127
3 26 -61 26 -60 109 0 c59 0 108 3 108 8 0 7 -61 149 -220 507 l-66 150 -106
3 -106 3 -26 -57z m168 -258 c14 -37 23 -72 20 -77 -7 -12 -111 -12 -119 0 -3
5 4 33 16 63 12 29 25 64 30 77 13 32 22 21 53 -63z"/>
<path d="M10170 2435 l0 -85 95 0 95 0 0 -250 0 -250 110 0 110 0 2 248 3 247
98 3 97 3 0 47 0 47 18 -23 c10 -13 59 -94 110 -181 l92 -157 0 -117 0 -117
105 0 105 0 0 118 0 117 124 210 c68 116 121 214 117 218 -4 4 -50 6 -102 5
l-94 -3 -66 -110 c-37 -60 -70 -110 -75 -109 -5 0 -29 34 -53 75 -24 41 -54
91 -67 112 l-24 37 -400 0 -400 0 0 -85z"/>
<path d="M1282 1958 c-50 -117 -119 -276 -152 -353 -149 -343 -300 -694 -300
-699 0 -4 288 -6 640 -6 l639 0 -21 48 c-11 26 -31 72 -43 102 -12 30 -78 186
-145 345 -67 160 -133 315 -145 345 -12 30 -36 87 -52 125 -17 39 -52 123 -79
187 l-49 118 -101 0 -101 0 -91 -212z m264 -448 c30 -80 66 -172 79 -205 12
-33 34 -90 49 -127 14 -36 26 -69 26 -72 0 -3 -106 -6 -236 -6 l-236 0 5 23
c6 24 214 564 224 580 8 13 17 -8 89 -193z"/>
<path d="M8730 1640 c-140 -36 -233 -121 -266 -243 -41 -153 18 -308 146 -385
76 -45 120 -55 235 -50 90 3 106 7 162 37 34 18 71 44 84 57 22 23 22 24 3 45
-10 12 -40 39 -66 60 l-47 40 -45 -32 c-62 -44 -136 -51 -185 -17 -52 35 -71
68 -78 130 -17 167 158 251 284 136 l22 -21 66 58 c36 32 65 61 65 65 0 18
-87 81 -139 101 -62 23 -186 33 -241 19z"/>
<path d="M10985 1640 c-111 -24 -206 -95 -252 -188 -25 -50 -28 -68 -28 -152
0 -85 3 -101 29 -153 36 -70 89 -120 165 -156 51 -24 67 -26 176 -26 115 0
122 1 180 32 107 56 176 154 190 268 14 107 -48 250 -134 309 -85 59 -227 88
-326 66z m165 -193 c78 -52 100 -166 48 -244 -90 -136 -278 -67 -278 102 0
127 132 209 230 142z"/>
<path d="M12365 1637 c-159 -42 -258 -149 -272 -299 -15 -165 69 -300 225
-359 48 -18 73 -20 162 -17 91 3 113 8 163 33 76 38 150 118 173 187 22 65 22
177 0 237 -34 92 -108 165 -204 201 -70 27 -180 34 -247 17z m175 -190 c51
-33 73 -79 73 -147 0 -97 -52 -159 -140 -167 -53 -5 -98 18 -136 69 -32 43
-35 132 -5 187 42 78 139 105 208 58z"/>
<path d="M13175 1637 c-80 -21 -140 -54 -185 -103 -56 -61 -82 -124 -88 -210
-9 -141 54 -255 178 -323 61 -34 71 -36 173 -39 91 -4 119 -1 176 18 38 12 83
30 100 41 l32 19 -3 138 -3 137 -92 3 -93 3 0 -86 c0 -84 0 -86 -27 -96 -16
-6 -50 -9 -76 -6 -84 7 -138 64 -145 151 -9 109 58 186 163 186 47 0 111 -26
134 -54 15 -18 17 -17 107 63 l49 43 -43 39 c-24 21 -69 48 -99 59 -70 26
-191 34 -258 17z"/>
<path d="M14230 1635 c-154 -44 -248 -157 -258 -311 -9 -141 55 -257 178 -324
64 -35 66 -35 190 -35 123 0 126 1 187 33 34 19 72 45 85 59 l23 25 -69 63
-68 62 -27 -25 c-110 -104 -269 -44 -279 105 -10 166 160 245 285 131 l22 -20
65 58 c36 31 66 61 66 65 0 16 -88 78 -140 99 -72 29 -187 35 -260 15z"/>
<path d="M7160 1545 l0 -85 95 0 95 0 0 -245 0 -245 110 0 110 0 0 245 0 244
98 3 97 3 3 83 3 82 -306 0 -305 0 0 -85z"/>
<path d="M7830 1300 l0 -330 275 0 275 0 0 80 0 80 -165 0 -165 0 0 50 0 50
140 0 140 0 0 75 0 75 -140 0 -140 0 0 45 0 45 160 0 160 0 0 80 0 80 -270 0
-270 0 0 -330z"/>
<path d="M9190 1300 l0 -330 110 0 110 0 0 125 0 125 105 0 105 0 0 -125 0
-125 110 0 110 0 0 330 0 330 -110 0 -110 0 0 -115 0 -115 -105 0 -105 0 0
115 0 115 -110 0 -110 0 0 -330z"/>
<path d="M9960 1300 l0 -330 105 0 104 0 3 152 3 152 125 -151 125 -152 93 0
92 -1 0 330 0 330 -105 0 -105 0 0 -145 c0 -82 -4 -145 -9 -145 -5 0 -64 65
-131 145 l-122 145 -89 0 -89 0 0 -330z"/>
<path d="M11530 1300 l0 -330 265 0 266 0 -3 83 -3 82 -152 3 -153 3 0 244 0
245 -110 0 -110 0 0 -330z"/>
<path d="M13660 1300 l0 -330 110 0 110 0 0 330 0 330 -110 0 -110 0 0 -330z"/>
<path d="M14899 1598 c-14 -36 -130 -302 -215 -495 -30 -68 -54 -125 -54 -128
0 -3 48 -5 108 -5 l107 0 27 60 27 61 126 -3 126 -3 22 -55 22 -55 113 -3 c61
-1 112 -1 112 1 0 2 -45 107 -100 233 -56 126 -120 273 -143 326 l-42 98 -111
0 -112 0 -13 -32z m160 -269 c17 -44 31 -83 31 -85 0 -2 -29 -4 -65 -4 -74 0
-76 2 -44 76 11 27 24 59 29 72 5 12 12 22 14 22 2 0 18 -36 35 -81z"/>
<path d="M15470 1300 l0 -330 260 0 260 0 0 85 0 85 -150 0 -150 0 0 245 0
245 -110 0 -110 0 0 -330z"/>
<path d="M771 776 c-12 -29 -189 -440 -243 -561 -22 -50 -42 -96 -45 -102 -4
-10 35 -13 175 -13 l180 0 46 118 c25 64 61 158 80 207 l34 90 464 3 463 2 81
-207 81 -208 176 -3 c97 -1 177 0 177 3 0 3 -30 76 -66 163 -37 86 -75 177
-85 202 -10 25 -45 108 -78 185 l-59 140 -686 3 -686 2 -9 -24z"/>
<path d="M11358 759 c-78 -11 -152 -45 -188 -85 -65 -75 -64 -194 3 -256 38
-36 72 -51 184 -78 115 -27 133 -36 133 -59 0 -33 -36 -44 -121 -38 -53 3 -96
13 -132 30 l-55 25 -35 -76 c-19 -43 -33 -80 -31 -84 9 -16 118 -48 197 -58
253 -34 424 82 386 262 -18 81 -81 123 -231 153 -94 19 -128 36 -128 65 0 43
98 52 205 19 37 -11 68 -19 70 -17 1 2 16 36 33 76 35 83 37 80 -63 105 -82
20 -159 26 -227 16z"/>
<path d="M7202 523 c3 -211 5 -232 26 -278 59 -130 195 -192 365 -165 78 12
111 27 162 72 78 68 95 142 95 403 l0 195 -110 0 -110 0 0 -205 c0 -219 -7
-262 -48 -284 -39 -21 -89 -13 -124 18 l-33 29 -3 221 -3 221 -111 0 -110 0 4
-227z"/>
<path d="M7960 420 l0 -330 105 0 105 0 0 145 c0 80 4 145 8 145 4 0 62 -65
127 -144 l120 -145 93 0 92 -1 0 330 0 330 -105 0 -105 0 0 -151 c0 -136 -2
-150 -16 -139 -8 8 -67 76 -130 152 l-116 138 -89 0 -89 0 0 -330z"/>
<path d="M8725 737 c-3 -7 -4 -154 -3 -327 l3 -315 108 -3 107 -3 0 331 0 330
-105 0 c-76 0 -107 -4 -110 -13z"/>
<path d="M9015 693 c12 -32 54 -132 93 -223 38 -91 90 -212 114 -270 l44 -105
111 -3 111 -3 47 113 c26 62 88 207 136 322 49 114 89 212 89 217 0 5 -47 9
-104 9 l-104 0 -78 -190 c-44 -104 -83 -189 -88 -187 -7 2 -139 311 -153 360
-5 15 -20 17 -123 17 l-119 0 24 -57z"/>
<path d="M9800 420 l0 -330 275 0 275 0 0 80 0 80 -167 2 -168 3 0 45 0 45
138 3 137 3 0 74 0 74 -137 3 -138 3 0 40 0 40 163 3 163 2 -3 78 -3 77 -267
3 -268 2 0 -330z"/>
<path d="M10440 421 l0 -331 110 0 110 0 0 86 0 85 32 -3 c28 -3 40 -14 88
-83 l56 -80 118 -3 118 -3 -66 97 c-64 94 -75 114 -58 114 17 0 76 66 93 105
41 88 10 223 -63 278 -73 56 -97 61 -325 65 l-213 4 0 -331z m375 134 c16 -15
25 -36 25 -55 0 -19 -9 -40 -25 -55 -21 -22 -33 -25 -90 -25 l-65 0 0 80 0 80
65 0 c57 0 69 -3 90 -25z"/>
<path d="M11780 420 l0 -330 110 0 110 0 0 330 0 330 -110 0 -110 0 0 -330z"/>
<path d="M12060 665 l0 -85 100 0 100 0 0 -245 0 -245 110 0 110 0 0 245 0
245 95 0 95 0 0 50 c0 28 3 50 8 50 4 0 53 -77 110 -171 l102 -172 0 -123 0
-124 110 0 110 0 0 118 0 117 116 195 c64 107 120 203 125 213 9 16 2 17 -95
17 l-104 0 -69 -115 c-79 -134 -65 -136 -154 23 l-53 92 -408 0 -408 0 0 -85z"/>
</g>
</svg>
